<svg xmlns="http://www.w3.org/2000/svg" width="167" height="94" viewBox="0 0 167 94"><rect width="100%" height="100%" fill="#DDDDDD"/><path fill="#999999" d="M41.495 53.99h3.38v2.41h-10.4v-2.41h3.81V43.04q0-.65.03-1.34l-2.7 2.26q-.23.18-.46.23-.23.04-.43 0t-.36-.13q-.15-.1-.23-.22l-1.01-1.39 5.73-4.87h2.64zm17.37-16.39-5.58 6.83-.65.8q.54-.27 1.17-.42.64-.15 1.36-.15 1.07 0 2.08.35 1 .35 1.77 1.06t1.24 1.76q.46 1.06.46 2.46 0 1.31-.48 2.46t-1.35 2.01-2.1 1.35q-1.23.5-2.71.5-1.51 0-2.7-.48-1.2-.48-2.04-1.35-.85-.86-1.3-2.08-.45-1.21-.45-2.7 0-1.32.54-2.72t1.67-2.91l4.49-6.01q.23-.32.68-.54t1.04-.22zm-4.85 16.38q.76 0 1.41-.26.64-.26 1.1-.73.46-.46.72-1.09.26-.64.26-1.38 0-.8-.24-1.45-.25-.64-.71-1.09-.45-.45-1.09-.68-.63-.23-1.4-.23t-1.39.26q-.63.26-1.07.72t-.69 1.09q-.24.63-.24 1.36 0 .78.21 1.42t.64 1.1q.42.45 1.04.71.63.25 1.45.25m8.77-16.38h12.99v1.39q0 .63-.13 1.01t-.26.64l-7.13 14.67q-.22.45-.62.77t-1.08.32h-2.33l7.27-14.37q.25-.44.49-.81t.54-.71h-9q-.3 0-.52-.22t-.22-.52zm33.87 14.5-1.71 1.67-4.4-4.4-4.45 4.43-1.7-1.68 4.44-4.46-4.23-4.23 1.69-1.69 4.23 4.23 4.22-4.21 1.71 1.69-4.22 4.23zm12.01-8.86q0 1.58.81 2.4.81.83 2.31.83.78 0 1.39-.25t1.03-.68q.41-.42.63-1.01.21-.58.21-1.26 0-.77-.23-1.37-.24-.61-.67-1.02-.42-.42-1.02-.64-.59-.22-1.29-.22-.73 0-1.31.24-.59.24-1 .67-.42.43-.64 1.02t-.22 1.29m-1.57 13.16 5.83-7.29q.22-.28.42-.54l.38-.52q-.65.42-1.43.63-.78.22-1.64.22-.98 0-1.91-.34-.94-.34-1.67-1.02t-1.17-1.69q-.45-1.01-.45-2.36 0-1.26.47-2.37.46-1.1 1.31-1.93.84-.83 2.03-1.32 1.18-.48 2.61-.48 1.44 0 2.59.46 1.15.45 1.97 1.27.81.82 1.24 1.97.44 1.14.44 2.5 0 .88-.15 1.66t-.42 1.5q-.28.72-.67 1.41t-.87 1.36l-4.3 6.14q-.22.31-.66.53-.44.21-1 .21zm15.89-7.09h5.72v-6.14q0-.88.12-1.93zm8.52 0h2.37v1.86q0 .26-.17.45t-.48.19h-1.72v4.59h-2.8v-4.59h-7.93q-.32 0-.57-.2-.24-.2-.31-.5l-.34-1.63 8.91-11.89h3.04z"/></svg>