<svg xmlns="http://www.w3.org/2000/svg" width="213" height="120" viewBox="0 0 213 120"><rect width="100%" height="100%" fill="#DDDDDD"/><path fill="#999999" d="M49.24 67.155h5.38q.58 0 .92.32.34.33.34.86v2.15H41.5v-1.19q0-.36.15-.76t.48-.72l6.37-6.38q.8-.81 1.43-1.55t1.05-1.46q.42-.73.64-1.48.23-.74.23-1.57 0-.75-.22-1.33-.22-.57-.62-.96-.39-.39-.95-.59-.56-.19-1.26-.19-.63 0-1.18.18-.54.18-.96.51-.42.32-.71.76-.29.43-.44.95-.24.67-.64.89-.39.22-1.13.1l-1.88-.33q.22-1.51.84-2.65t1.56-1.9q.93-.76 2.14-1.14 1.21-.39 2.61-.39 1.45 0 2.65.43t2.06 1.21q.85.78 1.33 1.88.48 1.11.48 2.45 0 1.16-.34 2.15t-.91 1.89q-.58.9-1.34 1.74-.77.84-1.61 1.71l-4.73 4.83q.68-.21 1.35-.32.68-.1 1.29-.1m19.21.65h3.77v2.68h-11.6v-2.68h4.25v-12.23q0-.72.04-1.49l-3.01 2.52q-.26.21-.52.26-.25.05-.48 0-.22-.04-.4-.15-.17-.11-.26-.24l-1.13-1.55 6.4-5.44h2.94zm9.03-12.11-1.88-.33q.22-1.51.84-2.65t1.56-1.9q.93-.76 2.14-1.14 1.22-.39 2.61-.39 1.45 0 2.61.41 1.17.42 2 1.15t1.27 1.72q.44.98.44 2.13 0 1-.23 1.76-.22.76-.64 1.33-.42.56-1.04.95-.63.4-1.41.66 1.88.59 2.81 1.81t.93 3.06q0 1.57-.58 2.77t-1.57 2.02q-.98.82-2.28 1.24t-2.75.42q-1.58 0-2.75-.36-1.18-.36-2.05-1.07t-1.48-1.74q-.6-1.03-1.04-2.38l1.58-.65q.62-.27 1.17-.14.54.12.79.59.26.5.57 1 .31.49.75.87.43.39 1.02.63t1.4.24q.91 0 1.59-.3.69-.3 1.14-.78.46-.48.68-1.06.23-.59.23-1.18 0-.76-.16-1.37-.16-.62-.67-1.06-.51-.43-1.46-.68-.94-.24-2.54-.24v-2.56q1.32-.01 2.19-.24t1.38-.65q.52-.41.72-.99.21-.58.21-1.28 0-1.48-.83-2.24-.83-.77-2.21-.77-.63 0-1.17.18t-.96.51q-.43.32-.72.76-.29.43-.44.95-.24.67-.64.89t-1.13.1m35.67 9.99-1.9 1.87-4.91-4.91-4.96 4.94-1.9-1.87 4.96-4.97-4.73-4.73 1.89-1.89 4.72 4.73 4.7-4.7 1.92 1.89-4.72 4.71zm19.85 2.12h3.77v2.68h-11.6v-2.68h4.25v-12.23q0-.72.05-1.49l-3.02 2.52q-.26.21-.51.26-.26.05-.48 0-.23-.04-.4-.15-.18-.11-.26-.24l-1.13-1.55 6.39-5.44H133zm14.43-.65h5.38q.58 0 .92.32.34.33.34.86v2.15h-14.38v-1.19q0-.36.15-.76t.49-.72l6.36-6.38q.8-.81 1.43-1.55t1.05-1.46q.42-.73.65-1.48.22-.74.22-1.57 0-.75-.22-1.33-.21-.57-.61-.96t-.96-.59q-.56-.19-1.25-.19-.64 0-1.18.18-.55.18-.97.51-.42.32-.71.76-.29.43-.43.95-.25.67-.64.89t-1.13.1l-1.89-.33q.22-1.51.84-2.65.63-1.14 1.56-1.9.94-.76 2.15-1.14 1.21-.39 2.6-.39 1.45 0 2.65.43 1.21.43 2.06 1.21.86.78 1.34 1.88.48 1.11.48 2.45 0 1.16-.35 2.15-.34.99-.91 1.89t-1.34 1.74-1.61 1.71l-4.73 4.83q.68-.21 1.36-.32.67-.1 1.28-.1m24.07-7.15q0 2.74-.59 4.76-.58 2.02-1.62 3.34t-2.45 1.97q-1.41.64-3.05.64t-3.04-.64q-1.4-.65-2.43-1.97t-1.61-3.34-.58-4.76q0-2.76.58-4.77.58-2.02 1.61-3.34t2.43-1.96q1.4-.65 3.04-.65t3.05.65q1.41.64 2.45 1.96t1.62 3.34q.59 2.01.59 4.77m-3.7 0q0-2.28-.33-3.77-.33-1.5-.89-2.38-.56-.89-1.28-1.24-.73-.36-1.51-.36-.77 0-1.49.36-.72.35-1.27 1.24-.55.88-.87 2.38-.33 1.49-.33 3.77 0 2.27.33 3.77.32 1.49.87 2.37.55.89 1.27 1.24.72.36 1.49.36.78 0 1.51-.36.72-.35 1.28-1.24.56-.88.89-2.37.33-1.5.33-3.77"/></svg>