<svg xmlns="http://www.w3.org/2000/svg" width="313" height="176" viewBox="0 0 313 176"><rect width="100%" height="100%" fill="#DDDDDD"/><path fill="#999999" d="m66.03 81.76-2.73-.48q.32-2.19 1.22-3.84.9-1.64 2.26-2.75 1.35-1.1 3.11-1.66 1.75-.55 3.76-.55 2.1 0 3.8.6 1.69.59 2.88 1.66 1.2 1.06 1.84 2.48.64 1.43.64 3.09 0 1.45-.32 2.55-.33 1.11-.94 1.92-.61.82-1.51 1.39t-2.04.94q2.73.87 4.08 2.63 1.34 1.76 1.34 4.43 0 2.27-.84 4.01t-2.27 2.93-3.31 1.8-3.98.61q-2.28 0-3.99-.53-1.7-.52-2.96-1.55t-2.14-2.52-1.51-3.45l2.29-.94q.9-.38 1.69-.2t1.14.85q.38.73.83 1.45.45.71 1.08 1.27.63.55 1.49.9.85.35 2.02.35 1.32 0 2.31-.43t1.65-1.13q.66-.69.99-1.54.32-.85.32-1.71 0-1.09-.23-1.99-.23-.89-.96-1.52-.74-.63-2.11-.99-1.38-.35-3.69-.35v-3.7q1.91-.02 3.17-.36 1.26-.33 2.01-.93.74-.6 1.04-1.44.29-.84.29-1.85 0-2.14-1.2-3.25-1.19-1.11-3.19-1.11-.92 0-1.7.26t-1.4.73q-.62.48-1.04 1.11t-.63 1.38q-.35.97-.93 1.28-.58.32-1.63.15m35.64 17.53h5.46v3.89h-16.8v-3.89h6.15v-17.7q0-1.05.06-2.16l-4.36 3.65q-.38.3-.75.37t-.69.01q-.33-.06-.58-.22t-.38-.35l-1.64-2.24 9.27-7.88h4.26zm13.08-17.53-2.73-.48q.32-2.19 1.22-3.84.9-1.64 2.26-2.75 1.35-1.1 3.11-1.66 1.75-.55 3.76-.55 2.1 0 3.8.6 1.69.59 2.88 1.66 1.2 1.06 1.84 2.48.64 1.43.64 3.09 0 1.45-.32 2.55-.33 1.11-.94 1.92-.61.82-1.51 1.39t-2.04.94q2.73.87 4.08 2.63 1.34 1.76 1.34 4.43 0 2.27-.84 4.01t-2.27 2.93-3.31 1.8-3.98.61q-2.28 0-3.99-.53-1.7-.52-2.96-1.55t-2.14-2.52-1.51-3.45l2.29-.94q.9-.38 1.69-.2t1.14.85q.38.73.83 1.45.45.71 1.08 1.27.63.55 1.49.9.85.35 2.02.35 1.32 0 2.31-.43t1.65-1.13q.66-.69.99-1.54.32-.85.32-1.71 0-1.09-.23-1.99-.23-.89-.96-1.52-.74-.63-2.11-.99-1.38-.35-3.69-.35v-3.7q1.91-.02 3.17-.36 1.26-.33 2.01-.93.74-.6 1.04-1.44.29-.84.29-1.85 0-2.14-1.2-3.25-1.19-1.11-3.19-1.11-.92 0-1.7.26t-1.4.73q-.62.48-1.04 1.11t-.63 1.38q-.35.97-.93 1.28-.58.32-1.63.15m51.66 14.47-2.75 2.71-7.12-7.12-7.18 7.16-2.75-2.71 7.18-7.2-6.85-6.85 2.73-2.73 6.85 6.85 6.8-6.81 2.78 2.73-6.83 6.83zm28.75 3.06h5.46v3.89h-16.8v-3.89h6.15v-17.7q0-1.05.07-2.16l-4.37 3.65q-.38.3-.75.37-.36.07-.69.01t-.58-.22-.38-.35l-1.63-2.24 9.26-7.88h4.26zm10.04-26.48h20.98v2.25q0 1.01-.21 1.63t-.42 1.04l-11.51 23.69q-.36.73-1.01 1.25-.65.51-1.74.51h-3.76l11.74-23.21q.4-.71.79-1.31.38-.6.87-1.14H206.4q-.49 0-.84-.36-.36-.36-.36-.84zm42.38 0-9.01 11.03-1.05 1.3q.88-.44 1.9-.68t2.19-.24q1.72 0 3.35.56 1.63.57 2.87 1.72 1.24 1.14 1.99 2.84.76 1.7.76 3.97 0 2.12-.78 3.98-.77 1.86-2.18 3.24-1.41 1.39-3.39 2.19-1.99.8-4.38.8-2.44 0-4.37-.78t-3.3-2.17q-1.36-1.4-2.09-3.36-.72-1.97-.72-4.36 0-2.14.87-4.4t2.7-4.7l7.25-9.72q.37-.5 1.1-.86.72-.36 1.67-.36zm-7.84 26.46q1.24 0 2.28-.42t1.79-1.17q.74-.76 1.16-1.78.42-1.01.42-2.21 0-1.3-.4-2.34t-1.13-1.77q-.73-.72-1.76-1.1t-2.27-.38-2.25.42-1.72 1.17q-.72.74-1.11 1.76-.4 1.02-.4 2.2 0 1.26.34 2.3.35 1.03 1.03 1.77.69.73 1.69 1.14 1.01.41 2.33.41"/></svg>