<svg xmlns="http://www.w3.org/2000/svg" width="413" height="232" viewBox="0 0 413 232"><rect width="100%" height="100%" fill="#DDDDDD"/><path fill="#999999" d="M90.13 120.89h12.09v-13.01q0-1.84.25-4.06zm18.01 0h5v3.94q0 .54-.36.94-.35.4-1.01.4h-3.63v9.71h-5.92v-9.71H85.45q-.69 0-1.21-.42-.52-.43-.66-1.06l-.72-3.44 18.84-25.16h6.44zm27.72 9.9h7.15v5.09h-22v-5.09h8.05v-23.18q0-1.37.09-2.83l-5.72 4.78q-.5.39-.98.48-.48.1-.91.02-.42-.09-.75-.29-.33-.21-.5-.46l-2.14-2.94 12.12-10.31h5.59zm17.13-22.96-3.58-.63q.42-2.86 1.6-5.02t2.96-3.6q1.77-1.45 4.07-2.18 2.29-.72 4.93-.72 2.75 0 4.97.78 2.21.78 3.78 2.17 1.56 1.39 2.4 3.26t.84 4.04q0 1.9-.42 3.34-.43 1.45-1.23 2.52t-1.98 1.82q-1.18.74-2.67 1.23 3.58 1.13 5.34 3.44t1.76 5.8q0 2.97-1.1 5.26-1.1 2.28-2.97 3.83t-4.33 2.35-5.21.8q-3 0-5.23-.69t-3.88-2.03q-1.65-1.35-2.8-3.3-1.16-1.96-1.98-4.51l3-1.24q1.18-.49 2.21-.26t1.5 1.11q.49.96 1.09 1.9.59.93 1.41 1.66.83.73 1.94 1.19 1.11.45 2.65.45 1.74 0 3.03-.56 1.29-.57 2.16-1.48.86-.9 1.29-2.02.43-1.11.43-2.24 0-1.43-.31-2.6-.3-1.17-1.26-1.99-.96-.83-2.76-1.29-1.81-.47-4.83-.47v-4.84q2.5-.03 4.15-.47t2.63-1.22q.97-.79 1.36-1.88.38-1.11.38-2.43 0-2.8-1.56-4.26-1.57-1.45-4.18-1.45-1.21 0-2.23.34t-1.83.96-1.36 1.45q-.55.82-.83 1.81-.46 1.26-1.22 1.68-.76.41-2.13.19m67.65 18.95-3.6 3.55-9.33-9.33-9.4 9.38-3.6-3.55 9.4-9.43-8.96-8.97 3.57-3.57 8.97 8.97 8.91-8.91 3.63 3.57-8.94 8.94zm33.11 2.77h10.2q1.1 0 1.75.62.64.62.64 1.64v4.07h-27.28v-2.25q0-.69.29-1.45t.92-1.36l12.08-12.1q1.51-1.54 2.71-2.94 1.19-1.4 1.99-2.78.8-1.37 1.22-2.79.43-1.42.43-2.99 0-1.43-.41-2.51-.42-1.09-1.17-1.83-.76-.74-1.82-1.11t-2.38-.37q-1.21 0-2.24.34t-1.83.96q-.79.62-1.34 1.45-.55.82-.83 1.81-.47 1.26-1.21 1.68-.74.41-2.14.19l-3.58-.63q.41-2.86 1.6-5.02 1.18-2.16 2.95-3.6 1.78-1.45 4.07-2.18 2.3-.72 4.94-.72 2.75 0 5.03.81t3.91 2.29q1.62 1.49 2.53 3.58.9 2.09.9 4.64 0 2.2-.64 4.08-.65 1.87-1.73 3.57-1.09 1.71-2.55 3.3t-3.05 3.24l-8.97 9.16q1.3-.38 2.58-.59 1.27-.21 2.43-.21m21.67-21.72-3.58-.63q.42-2.86 1.6-5.02t2.96-3.6q1.77-1.45 4.07-2.18 2.29-.72 4.93-.72 2.75 0 4.97.78 2.21.78 3.78 2.17 1.56 1.39 2.4 3.26t.84 4.04q0 1.9-.42 3.34-.43 1.45-1.23 2.52t-1.98 1.82q-1.18.74-2.67 1.23 3.58 1.13 5.34 3.44t1.76 5.8q0 2.97-1.1 5.26-1.1 2.28-2.97 3.83t-4.33 2.35-5.21.8q-3 0-5.23-.69t-3.88-2.03q-1.65-1.35-2.8-3.3-1.16-1.96-1.98-4.51l3-1.24q1.18-.49 2.21-.26t1.5 1.11q.49.96 1.09 1.9.59.93 1.41 1.66.83.73 1.94 1.19 1.11.45 2.65.45 1.74 0 3.03-.56 1.29-.57 2.16-1.48.86-.9 1.29-2.02.43-1.11.43-2.24 0-1.43-.31-2.6-.3-1.17-1.26-1.99-.96-.83-2.76-1.29-1.81-.47-4.83-.47v-4.84q2.5-.03 4.15-.47t2.63-1.22q.97-.79 1.36-1.88.38-1.11.38-2.43 0-2.8-1.56-4.26-1.57-1.45-4.18-1.45-1.21 0-2.23.34t-1.83.96-1.36 1.45q-.55.82-.83 1.81-.46 1.26-1.22 1.68-.76.41-2.13.19m42.13 21.72h10.2q1.1 0 1.75.62.64.62.64 1.64v4.07h-27.28v-2.25q0-.69.29-1.45t.92-1.36l12.08-12.1q1.51-1.54 2.71-2.94 1.19-1.4 1.99-2.78.8-1.37 1.22-2.79.43-1.42.43-2.99 0-1.43-.41-2.51-.42-1.09-1.17-1.83-.76-.74-1.82-1.11t-2.38-.37q-1.21 0-2.24.34t-1.83.96q-.79.62-1.34 1.45-.55.82-.83 1.81-.47 1.26-1.21 1.68-.74.41-2.14.19l-3.58-.63q.41-2.86 1.6-5.02 1.18-2.16 2.95-3.6 1.78-1.45 4.07-2.18 2.3-.72 4.94-.72 2.75 0 5.03.81t3.91 2.29q1.62 1.49 2.53 3.58.9 2.09.9 4.64 0 2.2-.64 4.08-.65 1.87-1.73 3.57-1.09 1.71-2.55 3.3t-3.05 3.24l-8.97 9.16q1.3-.38 2.58-.59 1.27-.21 2.43-.21"/></svg>