<svg xmlns="http://www.w3.org/2000/svg" width="727" height="408" viewBox="0 0 727 408"><rect width="100%" height="100%" fill="#DDDDDD"/><path fill="#999999" d="M149.4 169.295h47.95v5.14q0 2.3-.48 3.72-.48 1.41-.96 2.37l-26.31 54.15q-.81 1.68-2.3 2.85-1.49 1.18-3.98 1.18h-8.6l26.84-53.04q.91-1.63 1.8-3 .88-1.37 1.99-2.62h-33.22q-1.1 0-1.92-.81-.81-.82-.81-1.92zm80.49 58.37h17.81q1.92 0 3.05 1.08t1.13 2.86v7.1h-47.62v-3.94q0-1.2.5-2.52.51-1.32 1.61-2.37l21.07-21.12q2.64-2.69 4.73-5.14t3.48-4.85 2.14-4.87q.74-2.47.74-5.21 0-2.49-.72-4.39-.72-1.89-2.04-3.19t-3.17-1.94q-1.84-.65-4.15-.65-2.11 0-3.91.6t-3.19 1.68-2.35 2.52-1.44 3.17q-.82 2.2-2.12 2.92-1.29.72-3.74.34l-6.24-1.1q.72-5 2.78-8.76 2.07-3.77 5.16-6.29 3.1-2.52 7.11-3.79 4.01-1.28 8.61-1.28 4.8 0 8.79 1.42 3.98 1.42 6.81 4.01 2.84 2.59 4.42 6.24t1.58 8.11q0 3.84-1.12 7.1-1.13 3.27-3.03 6.24-1.89 2.98-4.44 5.76-2.54 2.79-5.33 5.67l-15.64 15.98q2.25-.67 4.48-1.03 2.24-.36 4.25-.36m30.87-58.37h47.95v5.14q0 2.3-.48 3.72-.48 1.41-.96 2.37l-26.31 54.15q-.81 1.68-2.3 2.85-1.49 1.18-3.98 1.18h-8.6l26.84-53.04q.91-1.63 1.8-3 .88-1.37 1.99-2.62h-33.22q-1.1 0-1.92-.81-.81-.82-.81-1.92zm125.04 53.52-6.29 6.19-16.27-16.27-16.42 16.37-6.29-6.19 16.42-16.47-15.65-15.64 6.24-6.24 15.65 15.64 15.55-15.55 6.34 6.24-15.6 15.6zm41.56-10.27h21.12v-22.7q0-3.22.44-7.11zm31.44 0h8.74v6.86q0 .96-.62 1.66-.63.7-1.78.7h-6.34v16.94h-10.32v-16.94H419.2q-1.2 0-2.11-.75-.91-.74-1.15-1.85l-1.25-6 32.88-43.92h11.23zm64.47-8.54q0 9.07-1.95 15.76-1.94 6.7-5.37 11.07t-8.11 6.5q-4.68 2.14-10.11 2.14-5.42 0-10.05-2.14-4.64-2.13-8.04-6.5-3.41-4.37-5.33-11.07-1.92-6.69-1.92-15.76 0-9.12 1.92-15.8 1.92-6.67 5.33-11.04 3.4-4.36 8.04-6.5 4.63-2.14 10.05-2.14 5.43 0 10.11 2.14t8.11 6.5q3.43 4.37 5.37 11.04 1.95 6.68 1.95 15.8m-12.24 0q0-7.54-1.11-12.48-1.1-4.95-2.95-7.88-1.85-2.92-4.25-4.1t-4.99-1.18q-2.54 0-4.92 1.18-2.37 1.18-4.2 4.1-1.82 2.93-2.9 7.88-1.08 4.94-1.08 12.48 0 7.53 1.08 12.48 1.08 4.94 2.9 7.87 1.83 2.93 4.2 4.1 2.38 1.18 4.92 1.18 2.59 0 4.99-1.18 2.4-1.17 4.25-4.1t2.95-7.87q1.11-4.95 1.11-12.48m42.48 26.2q2.93 0 5.13-.84 2.21-.84 3.72-2.32 1.52-1.49 2.28-3.56.77-2.06.77-4.46 0-5.71-3.17-8.64-3.16-2.93-8.73-2.93t-8.74 2.93-3.17 8.64q0 2.4.77 4.46.77 2.07 2.28 3.56 1.51 1.48 3.72 2.32t5.14.84m0-52.75q-2.64 0-4.56.82-1.92.81-3.19 2.18-1.28 1.37-1.88 3.15-.6 1.77-.6 3.74 0 2.06.51 4.01.5 1.94 1.7 3.45 1.2 1.52 3.17 2.43t4.85.91 4.85-.91q1.96-.91 3.16-2.43 1.2-1.51 1.71-3.45.5-1.95.5-4.01 0-1.97-.62-3.74-.63-1.78-1.87-3.15-1.25-1.37-3.17-2.18-1.92-.82-4.56-.82m11.71 25.06q6.34 2.06 9.36 6.31t3.02 10.39q0 4.61-1.75 8.35-1.75 3.75-4.92 6.39t-7.61 4.08-9.81 1.44q-5.38 0-9.82-1.44t-7.61-4.08q-3.16-2.64-4.92-6.39-1.75-3.74-1.75-8.35 0-6.14 3.03-10.39 3.02-4.25 9.36-6.31-5.04-2.11-7.56-6t-2.52-9.36q0-3.94 1.6-7.35 1.61-3.4 4.49-5.92t6.89-3.94 8.81-1.42 8.81 1.42q4 1.42 6.88 3.94t4.49 5.92q1.61 3.41 1.61 7.35 0 5.47-2.52 9.36t-7.56 6"/></svg>