<svg xmlns="http://www.w3.org/2000/svg" width="83" height="83" viewBox="0 0 83 83"><rect width="100%" height="100%" fill="#DDDDDD"/><path fill="#999999" d="M20.51 45.59q.46 0 .81-.13.34-.13.58-.36.23-.23.35-.56.12-.32.12-.69 0-.9-.49-1.35-.5-.46-1.37-.46t-1.36.46q-.5.45-.5 1.35 0 .37.12.69.12.33.36.56t.58.36q.35.13.8.13m0-8.24q-.41 0-.71.13t-.5.34-.29.49-.09.58q0 .33.08.63.07.31.26.54.19.24.5.38.3.14.75.14t.76-.14.5-.38q.18-.23.26-.54.08-.3.08-.63 0-.3-.1-.58-.09-.28-.29-.49-.19-.21-.49-.34t-.72-.13m1.83 3.92q.99.32 1.47.98.47.67.47 1.63 0 .72-.27 1.3-.28.58-.77 1-.5.41-1.19.64-.7.22-1.54.22t-1.53-.22q-.69-.23-1.19-.64-.49-.42-.77-1-.27-.58-.27-1.3 0-.96.47-1.63.47-.66 1.46-.98-.78-.33-1.18-.94-.39-.61-.39-1.46 0-.62.25-1.15t.7-.93q.45-.39 1.08-.61.62-.22 1.37-.22t1.38.22 1.08.61q.45.4.7.93t.25 1.15q0 .85-.39 1.46-.4.61-1.19.94m4.31-2-.98-.17q.12-.78.44-1.37t.81-.98q.48-.4 1.11-.6.62-.19 1.34-.19.75 0 1.36.21.6.21 1.03.59.42.38.65.89t.23 1.1q0 .52-.11.91-.12.4-.34.69t-.54.49q-.32.21-.73.34.98.31 1.46.94t.48 1.58q0 .81-.3 1.44-.3.62-.81 1.04t-1.18.64-1.42.22q-.82 0-1.43-.19t-1.06-.55q-.45-.37-.76-.9-.32-.53-.54-1.23l.82-.34q.32-.14.6-.07.28.06.41.3.13.27.3.52.16.26.38.45.23.2.53.33.3.12.72.12.48 0 .83-.15.35-.16.59-.4.23-.25.35-.56.12-.3.12-.61 0-.39-.09-.71-.08-.31-.34-.54-.26-.22-.75-.35-.5-.13-1.32-.13v-1.32q.68-.01 1.13-.13t.72-.33q.26-.21.37-.51.1-.3.1-.66 0-.77-.42-1.17-.43-.39-1.14-.39-.33 0-.61.09t-.5.26-.37.4q-.15.22-.23.49-.12.35-.33.46t-.58.05m18.45 5.17-.98.97-2.55-2.55-2.56 2.56-.98-.97 2.56-2.57-2.44-2.44.97-.98 2.45 2.45L44 38.47l.99.98-2.44 2.44zm8.8 1.15q.46 0 .81-.13.34-.13.58-.36.23-.23.35-.56.12-.32.12-.69 0-.9-.49-1.35-.5-.46-1.37-.46t-1.36.46q-.5.45-.5 1.35 0 .37.12.69.12.33.36.56t.58.36q.35.13.8.13m0-8.24q-.41 0-.71.13t-.5.34-.29.49-.09.58q0 .33.08.63.07.31.26.54.19.24.5.38.3.14.75.14t.76-.14.5-.38q.18-.23.26-.54.08-.3.08-.63 0-.3-.1-.58-.09-.28-.29-.49-.19-.21-.49-.34t-.72-.13m1.83 3.92q.99.32 1.47.98.47.67.47 1.63 0 .72-.27 1.3-.28.58-.77 1-.5.41-1.19.64-.7.22-1.54.22t-1.53-.22q-.69-.23-1.19-.64-.49-.42-.77-1-.27-.58-.27-1.3 0-.96.47-1.63.47-.66 1.46-.98-.78-.33-1.18-.94-.39-.61-.39-1.46 0-.62.25-1.15t.7-.93q.45-.39 1.08-.61.62-.22 1.37-.22t1.38.22 1.08.61q.45.4.7.93t.25 1.15q0 .85-.39 1.46-.4.61-1.19.94m4.31-2-.98-.17q.12-.78.44-1.37t.81-.98q.48-.4 1.11-.6.62-.19 1.34-.19.75 0 1.36.21.6.21 1.03.59.42.38.65.89t.23 1.1q0 .52-.11.91-.12.4-.34.69t-.54.49q-.32.21-.73.34.98.31 1.46.94t.48 1.58q0 .81-.3 1.44-.3.62-.81 1.04t-1.18.64-1.42.22q-.82 0-1.43-.19t-1.06-.55q-.45-.37-.76-.9-.32-.53-.54-1.23l.82-.34q.32-.14.6-.07.28.06.41.3.13.27.3.52.16.26.38.45.23.2.53.33.3.12.72.12.48 0 .83-.15.35-.16.59-.4.23-.25.35-.56.12-.3.12-.61 0-.39-.09-.71-.08-.31-.34-.54-.26-.22-.75-.35-.5-.13-1.32-.13v-1.32q.68-.01 1.13-.13t.72-.33q.26-.21.37-.51.1-.3.1-.66 0-.77-.42-1.17-.43-.39-1.14-.39-.33 0-.61.09t-.5.26-.37.4q-.15.22-.23.49-.12.35-.33.46t-.58.05"/></svg>