<svg xmlns="http://www.w3.org/2000/svg" width="980" height="550" viewBox="0 0 980 550"><rect width="100%" height="100%" fill="#DDDDDD"/><path fill="#999999" d="M214.89 256.215q0 7.87 4.06 11.99 4.06 4.13 11.54 4.13 3.9 0 6.95-1.24 3.06-1.23 5.14-3.37 2.08-2.15 3.15-5.07 1.07-2.93 1.07-6.31 0-3.83-1.17-6.86-1.17-3.02-3.31-5.1t-5.1-3.19q-2.96-1.1-6.47-1.1-3.64 0-6.57 1.2-2.92 1.2-5 3.35t-3.19 5.1q-1.1 2.96-1.1 6.47m-7.87 65.78 29.19-36.47q1.1-1.36 2.08-2.66.97-1.3 1.89-2.6-3.25 2.08-7.16 3.15-3.9 1.07-8.19 1.07-4.87 0-9.55-1.69-4.68-1.68-8.32-5.1-3.64-3.41-5.88-8.45-2.25-5.04-2.25-11.8 0-6.3 2.35-11.83 2.33-5.52 6.56-9.68 4.22-4.16 10.14-6.57 5.92-2.4 13.06-2.4 7.22 0 12.97 2.27 5.75 2.28 9.82 6.37 4.06 4.1 6.24 9.82 2.17 5.72 2.17 12.54 0 4.36-.74 8.26-.75 3.9-2.12 7.51-1.36 3.6-3.31 7.05-1.95 3.44-4.35 6.83l-21.52 30.67q-1.11 1.56-3.31 2.64-2.22 1.07-5.01 1.07zm99.52-11.51q3.96 0 6.95-1.13 3-1.14 5.04-3.15 2.05-2.02 3.09-4.82 1.04-2.79 1.04-6.04 0-7.73-4.29-11.7t-11.83-3.97-11.83 3.97-4.29 11.7q0 3.25 1.04 6.04 1.04 2.8 3.09 4.82 2.04 2.01 5.04 3.15 2.98 1.13 6.95 1.13m0-71.43q-3.58 0-6.17 1.1-2.6 1.11-4.33 2.96-1.72 1.85-2.53 4.26-.82 2.4-.82 5.07 0 2.8.69 5.43.68 2.63 2.3 4.68 1.63 2.04 4.29 3.28 2.67 1.23 6.57 1.23t6.57-1.23q2.66-1.24 4.29-3.28 1.62-2.05 2.3-4.68t.68-5.43q0-2.67-.84-5.07-.85-2.41-2.54-4.26t-4.29-2.96q-2.59-1.1-6.17-1.1m15.86 33.93q8.58 2.79 12.67 8.55 4.1 5.75 4.1 14.07 0 6.24-2.37 11.31t-6.67 8.64q-4.29 3.58-10.3 5.53t-13.29 1.95-13.29-1.95-10.31-5.53q-4.29-3.57-6.66-8.64t-2.37-11.31q0-8.32 4.09-14.07 4.1-5.76 12.68-8.55-6.82-2.86-10.24-8.13-3.41-5.26-3.41-12.67 0-5.33 2.18-9.95 2.17-4.61 6.07-8.02 3.9-3.42 9.33-5.33 5.43-1.92 11.93-1.92t11.93 1.92q5.43 1.91 9.33 5.33 3.89 3.41 6.07 8.02 2.18 4.62 2.18 9.95 0 7.41-3.41 12.67-3.41 5.27-10.24 8.13m93.99 2.01q0 12.29-2.63 21.36t-7.28 14.98-10.99 8.81q-6.34 2.89-13.68 2.89-7.35 0-13.62-2.89-6.27-2.9-10.89-8.81-4.61-5.91-7.21-14.98t-2.6-21.36q0-12.34 2.6-21.38t7.21-14.95q4.62-5.92 10.89-8.81t13.62-2.89q7.34 0 13.68 2.89t10.99 8.81q4.65 5.91 7.28 14.95t2.63 21.38m-16.57 0q0-10.2-1.5-16.9-1.49-6.69-4-10.66-2.5-3.96-5.75-5.55t-6.76-1.59q-3.44 0-6.66 1.59t-5.69 5.55q-2.47 3.97-3.93 10.66-1.46 6.7-1.46 16.9 0 10.21 1.46 16.9 1.46 6.7 3.93 10.66 2.47 3.97 5.69 5.56t6.66 1.59q3.51 0 6.76-1.59t5.75-5.56q2.51-3.96 4-10.66 1.5-6.69 1.5-16.9m119.79 25.48-8.51 8.39-22.04-22.03-22.23 22.16-8.51-8.39 22.23-22.29-21.19-21.19 8.45-8.45 21.19 21.19 21.06-21.06 8.58 8.45-21.13 21.12zm68.32-57.91-3.32 19.56q3.12-.65 5.98-.94t5.53-.29q7.41 0 13.06 2.21 5.66 2.21 9.49 6.11 3.84 3.9 5.79 9.13 1.95 5.24 1.95 11.28 0 7.48-2.64 13.65-2.63 6.18-7.31 10.56-4.68 4.39-11.08 6.8-6.4 2.4-13.94 2.4-4.42 0-8.39-.91-3.96-.91-7.44-2.44-3.48-1.52-6.44-3.51-2.95-1.98-5.29-4.19l4.94-6.83q1.56-2.21 4.09-2.21 1.63 0 3.32 1.05 1.69 1.04 3.86 2.27 2.18 1.23 5.14 2.27t7.12 1.04q4.42 0 7.8-1.43t5.62-3.99q2.24-2.57 3.38-6.11 1.14-3.55 1.14-7.71 0-7.67-4.46-11.99-4.45-4.32-13.16-4.32-6.69 0-13.71 2.47l-10.01-2.86 7.8-45.63h46.41v6.82q0 3.45-2.15 5.59-2.14 2.15-7.28 2.15zm75.4 0-3.32 19.56q3.12-.65 5.98-.94t5.53-.29q7.41 0 13.06 2.21 5.66 2.21 9.49 6.11 3.84 3.9 5.79 9.13 1.95 5.24 1.95 11.28 0 7.48-2.64 13.65-2.63 6.18-7.31 10.56-4.68 4.39-11.08 6.8-6.4 2.4-13.94 2.4-4.42 0-8.39-.91-3.96-.91-7.44-2.44-3.48-1.52-6.44-3.51-2.95-1.98-5.29-4.19l4.94-6.83q1.56-2.21 4.09-2.21 1.63 0 3.32 1.05 1.69 1.04 3.86 2.27 2.18 1.23 5.14 2.27t7.12 1.04q4.42 0 7.8-1.43t5.62-3.99q2.24-2.57 3.38-6.11 1.14-3.55 1.14-7.71 0-7.67-4.46-11.99-4.45-4.32-13.16-4.32-6.69 0-13.71 2.47l-10.01-2.86 7.8-45.63h46.41v6.82q0 3.45-2.15 5.59-2.14 2.15-7.28 2.15zm117.84 32.43q0 12.29-2.63 21.36t-7.28 14.98-10.99 8.81q-6.33 2.89-13.68 2.89-7.34 0-13.62-2.89-6.27-2.9-10.88-8.81-4.62-5.91-7.22-14.98t-2.6-21.36q0-12.34 2.6-21.38t7.22-14.95q4.61-5.92 10.88-8.81 6.28-2.89 13.62-2.89 7.35 0 13.68 2.89 6.34 2.89 10.99 8.81 4.65 5.91 7.28 14.95t2.63 21.38m-16.57 0q0-10.2-1.5-16.9-1.49-6.69-4-10.66-2.5-3.96-5.75-5.55t-6.76-1.59q-3.44 0-6.66 1.59t-5.69 5.55q-2.47 3.97-3.93 10.66-1.46 6.7-1.46 16.9 0 10.21 1.46 16.9 1.46 6.7 3.93 10.66 2.47 3.97 5.69 5.56t6.66 1.59q3.51 0 6.76-1.59t5.75-5.56q2.51-3.96 4-10.66 1.5-6.69 1.5-16.9"/></svg>